<?xml version="1.0" standalone="no"?>
<!DOCTYPE svg PUBLIC "-//W3C//DTD SVG 20010904//EN"
 "http://www.w3.org/TR/2001/REC-SVG-20010904/DTD/svg10.dtd">
<svg version="1.0" xmlns="http://www.w3.org/2000/svg"
 width="400.000000pt" height="400.000000pt" viewBox="0 0 400.000000 400.000000"
 preserveAspectRatio="xMidYMid meet">
<metadata>
Created by potrace 1.14, written by Peter Selinger 2001-2017
</metadata>
<g transform="translate(0.000000,400.000000) scale(0.100000,-0.100000)"
fill="#000000" stroke="none">
<path d="M2048 3779 c-53 -4 -106 -13 -117 -18 -11 -6 -33 -11 -48 -11 -16 0
-33 -4 -38 -8 -6 -4 -28 -14 -50 -21 -318 -107 -606 -405 -720 -746 -41 -122
-47 -166 -52 -355 -5 -186 -5 -185 54 -378 73 -236 246 -455 467 -589 76 -47
186 -95 260 -115 70 -18 76 -6 76 147 0 181 -37 276 -133 346 -43 31 -69 29
-95 -8 -56 -82 -66 -88 -134 -87 -66 2 -158 35 -158 58 0 17 69 81 109 100 40
19 85 21 129 5 58 -20 56 -3 -7 46 -38 30 -72 67 -89 98 -15 28 -34 54 -42 57
-46 22 -87 29 -125 20 -68 -16 -136 5 -189 58 -44 43 -86 116 -86 147 0 21
109 20 181 -1 51 -15 108 -62 167 -138 27 -34 35 -11 36 99 2 130 -7 153 -67
188 -57 33 -103 86 -117 134 -7 21 -14 73 -17 117 l-6 79 37 -7 c47 -9 101
-40 148 -84 40 -37 53 -82 49 -159 -1 -24 1 -43 6 -43 4 0 19 25 32 55 12 30
43 81 67 114 52 69 52 88 -3 160 -44 59 -56 109 -48 199 8 83 28 142 49 142
23 0 107 -91 128 -136 10 -23 19 -59 19 -81 1 -38 -24 -127 -44 -151 -21 -26
0 -19 52 16 30 21 61 51 70 67 66 118 110 153 244 195 117 37 131 23 76 -79
-65 -123 -131 -171 -234 -171 -54 0 -82 -14 -174 -86 -1 -1 -1 -8 0 -13 3 -7
19 -1 39 12 19 13 58 30 86 37 48 12 55 12 100 -10 59 -29 144 -106 144 -131
0 -25 -22 -35 -110 -52 -97 -18 -157 -5 -225 47 -65 49 -98 47 -137 -9 -37
-54 -88 -162 -88 -185 0 -20 24 -9 57 25 63 65 135 83 217 55 52 -18 112 -53
128 -75 11 -15 -19 -39 -92 -77 -55 -28 -76 -33 -135 -33 -47 0 -81 6 -104 18
-19 9 -46 17 -62 17 -25 0 -28 -4 -34 -50 -8 -57 2 -167 16 -176 5 -3 9 -15 9
-27 0 -39 54 -109 121 -160 50 -38 59 -35 59 21 1 75 35 131 102 165 30 16 70
29 89 30 29 2 35 -2 37 -22 2 -13 0 -33 -6 -45 -5 -12 -19 -42 -30 -68 -22
-49 -83 -103 -129 -114 -13 -4 -23 -11 -23 -16 0 -6 31 -40 68 -77 49 -49 71
-80 81 -112 7 -24 18 -57 25 -74 6 -18 10 -93 10 -187 -1 -132 1 -158 14 -163
21 -8 226 -8 298 0 83 9 199 36 259 60 17 7 45 18 63 25 37 14 39 23 12 50
-33 33 -129 76 -270 119 -248 77 -283 99 -283 180 0 30 11 57 47 112 25 40 46
80 46 88 0 9 -9 30 -20 46 -26 40 -25 54 7 87 24 25 25 29 11 41 -9 6 -20 28
-23 48 -6 34 -4 39 49 85 70 63 77 88 37 138 -58 73 -34 108 113 166 48 19
104 49 124 66 l36 31 -27 32 c-24 29 -36 61 -22 61 3 0 17 -7 30 -16 48 -31
66 -17 103 81 19 50 38 98 43 107 5 10 9 23 9 30 0 7 22 42 49 78 65 87 167
169 268 215 50 23 50 34 -3 82 -89 79 -297 203 -341 203 -7 0 -21 4 -31 9 -29
15 -87 31 -111 31 -12 0 -30 4 -39 9 -26 13 -215 19 -324 10z"/>
<path d="M560 1171 c-49 -19 -155 -75 -176 -92 -7 -6 -25 -31 -40 -56 -20 -34
-26 -59 -27 -104 0 -82 31 -127 117 -168 58 -28 73 -31 161 -31 93 0 96 1 93
22 -3 20 -8 21 -70 19 -219 -8 -311 156 -168 299 25 25 51 39 90 48 110 27
121 32 118 55 -4 29 -39 31 -98 8z"/>
<path d="M3180 1053 c-1 -143 -22 -206 -80 -246 -57 -39 -150 -6 -171 61 -7
20 -15 89 -18 152 -5 102 -8 115 -25 118 -30 6 -36 -16 -36 -136 0 -93 4 -120
21 -156 27 -59 60 -87 111 -97 79 -15 153 6 195 55 47 53 55 85 61 218 l5 128
-32 0 -31 0 0 -97z"/>
<path d="M3366 1013 c-3 -76 -8 -166 -10 -200 l-4 -63 114 0 114 0 0 25 c0 23
-3 24 -77 27 l-78 3 0 130 c0 72 2 148 5 170 5 39 4 40 -26 43 l-32 3 -6 -138z"/>
<path d="M1760 1131 l-35 -6 -3 -198 -2 -198 102 3 c95 3 103 4 103 23 0 18
-8 20 -72 23 -40 2 -73 6 -74 10 -15 103 -6 120 68 124 34 2 58 8 61 16 6 19
-38 30 -75 19 -21 -7 -37 -7 -42 -1 -8 8 -16 103 -12 142 1 8 22 12 70 12 39
0 72 4 76 9 16 26 -75 38 -165 22z"/>
<path d="M2525 950 c-4 -104 -8 -193 -9 -197 0 -5 14 -9 32 -11 l32 -3 0 78
c0 48 5 84 12 91 7 7 38 12 71 12 55 0 58 1 55 23 -3 23 -26 27 -78 13 -43
-11 -55 6 -53 74 2 34 5 66 8 71 4 5 38 9 76 9 52 0 70 3 67 13 -3 8 -36 13
-105 15 l-101 3 -7 -191z"/>
<path d="M1383 1123 l-33 -4 0 -193 c0 -106 2 -195 4 -197 2 -2 52 -3 110 -1
96 3 106 5 106 22 0 17 -9 20 -77 22 l-78 3 -3 58 c-3 64 -4 63 73 71 28 3 51
5 53 5 1 1 2 10 2 22 0 19 -5 20 -62 17 l-63 -3 0 75 0 75 73 3 c52 2 72 6 69
15 -4 12 -110 18 -174 10z"/>
<path d="M2062 933 l3 -198 25 0 25 0 3 170 c1 94 5 176 7 183 3 7 22 12 48
12 48 0 87 -30 87 -67 0 -19 -65 -93 -82 -93 -20 0 -2 -28 68 -108 76 -88 98
-101 117 -71 8 14 -1 29 -46 80 -61 69 -72 105 -37 126 29 19 52 70 45 101 -8
39 -78 62 -184 62 l-81 0 2 -197z"/>
<path d="M822 1112 c-9 -7 -12 -53 -10 -198 l3 -189 28 -3 27 -3 0 85 c0 100
-14 92 157 101 86 5 113 3 119 -7 5 -7 9 -49 9 -93 0 -70 2 -80 19 -83 10 -2
22 0 26 5 5 4 10 94 11 198 l3 190 -29 0 -30 0 0 -77 c0 -42 -2 -78 -5 -81 -3
-3 -66 -6 -140 -8 l-135 -4 -3 80 c-3 86 -16 108 -50 87z"/>
<path d="M1686 573 c-3 -3 -6 -39 -6 -80 0 -58 3 -73 15 -73 12 0 15 15 15 74
0 69 -8 95 -24 79z"/>
<path d="M2200 491 c0 -69 14 -95 25 -48 10 37 1 110 -12 115 -10 3 -13 -15
-13 -67z"/>
<path d="M1790 518 c-6 -18 -16 -41 -21 -50 -14 -26 -11 -48 6 -48 9 0 15 9
15 24 0 26 31 59 37 40 2 -6 10 -20 18 -30 14 -18 16 -18 43 14 22 26 30 30
40 20 6 -6 12 -20 12 -29 0 -18 27 -45 36 -37 8 9 -40 121 -54 126 -6 2 -16
-7 -21 -20 -5 -13 -16 -30 -25 -37 -13 -11 -18 -8 -37 23 -11 20 -24 36 -29
36 -4 0 -13 -15 -20 -32z"/>
<path d="M2035 489 c-36 -62 -39 -84 -8 -57 10 8 26 18 35 21 11 4 15 13 11
28 -4 16 -2 20 8 17 8 -3 13 -11 11 -17 -3 -14 47 -60 66 -61 6 0 12 2 12 4 0
12 -82 126 -90 126 -5 0 -25 -28 -45 -61z"/>
</g>
</svg>
